<?xml version="1.0" encoding="UTF-8"?>
<svg width="66px" height="66px" viewBox="0 0 66 66" version="1.1" xmlns="http://www.w3.org/2000/svg" xmlns:xlink="http://www.w3.org/1999/xlink">
    <title>ic_edit_66@1x</title>
    <g id="ic_edit_66" stroke="none" stroke-width="1" fill="none" fill-rule="evenodd">
        <path d="M34.3659328,8 L14,8 C10.6862915,8 8,10.6862915 8,14 L8,52 C8,55.3137085 10.6862915,58 14,58 L52,58 C55.3137085,58 58,55.3137085 58,52 L58,26.0714213 L58,26.0714213" id="直线-8" stroke="#2C2C2C" stroke-width="6" stroke-linecap="square"></path>
        <path d="M48.9393398,3.56066017 C51.1484788,3.56066017 52.9393398,5.35152117 52.9393398,7.56066017 L52.9393398,30.5606602 L52.9393398,30.5606602 L44.9393398,30.5606602 L44.9393398,7.56066017 C44.9393398,5.35152117 46.7302008,3.56066017 48.9393398,3.56066017 Z" id="矩形" fill="#2C2C2C" transform="translate(48.9393, 17.0607) rotate(45) translate(-48.9393, -17.0607)"></path>
        <path d="M27.4142136,26.5857864 L35.4142136,26.5857864 L35.4142136,35.8591237 L32.3258492,41.1344386 C32.0468212,41.6110536 31.4342516,41.7712295 30.9576366,41.4922015 C30.8136649,41.4079151 30.6930679,41.2889484 30.6068298,41.1461371 L27.4142136,35.8591237 L27.4142136,35.8591237 L27.4142136,26.5857864 Z" id="矩形" fill="#2C2C2C" transform="translate(31.4142, 34.5858) rotate(45) translate(-31.4142, -34.5858)"></path>
    </g>
</svg>